ply
format ascii 1.0
comment Created by Blender 2.82 (sub 7) - www.blender.org, source file: 'dsdasd.blend'
element vertex 44
property float x
property float y
property float z
property float nx
property float ny
property float nz
property uchar red
property uchar green
property uchar blue
property uchar alpha
element face 24
property list uchar uint vertex_indices
end_header
0.342006 -0.256481 0.206493 0.000000 -0.000000 -1.000000 255 206 133 255
-0.341994 -0.256481 0.206493 0.000000 -0.000000 -1.000000 255 206 133 255
0.342006 0.256470 0.206493 0.000000 -0.000000 -1.000000 255 206 133 255
-0.341994 0.256470 0.206493 -0.000000 -0.000000 -1.000000 255 206 133 255
0.342006 -0.256481 -0.000006 -1.000000 -0.000000 -0.000000 255 206 133 255
0.342006 -0.256481 0.206493 -1.000000 -0.000000 -0.000000 255 206 133 255
0.342006 0.256470 0.206493 -1.000000 -0.000000 -0.000000 255 206 133 255
0.342006 0.256470 -0.206504 -1.000000 0.000000 -0.000000 255 206 133 255
-0.341994 0.256470 -0.206504 -0.000000 -1.000000 -0.000000 255 206 134 255
0.342006 0.256470 -0.206504 -0.000000 -1.000000 -0.000000 255 206 133 255
0.342006 0.256470 0.206493 -0.000000 -1.000000 -0.000000 255 206 133 255
-0.341994 0.256470 0.206493 -0.000000 -1.000000 0.000000 255 206 133 255
-0.341994 -0.256481 -0.000006 1.000000 0.000000 0.000000 255 206 133 255
-0.341994 0.256470 -0.206504 1.000000 0.000000 0.000000 255 206 134 255
-0.341994 0.256470 0.206493 1.000000 0.000000 0.000000 255 206 133 255
-0.341994 -0.256481 0.206493 1.000000 0.000000 -0.000000 255 206 133 255
0.342006 -0.256481 -0.206504 -1.000000 -0.000000 -0.000000 255 206 133 255
-0.341994 -0.256481 -0.206504 1.000000 0.000000 -0.000000 255 206 133 255
-0.341994 0.256470 -0.206504 0.000000 0.000000 1.000000 255 206 134 255
0.342006 -0.256481 -0.206504 0.000000 0.000000 1.000000 255 206 133 255
0.342006 0.256470 -0.206504 0.000000 0.000000 1.000000 255 206 133 255
-0.341994 -0.256481 -0.206504 0.000000 0.000000 1.000000 255 206 133 255
-0.341994 -0.256481 -0.000006 0.000000 1.000000 0.000000 255 206 133 255
-0.341994 -0.256481 0.206493 0.000000 1.000000 0.000000 255 206 133 255
0.342006 -0.256481 0.206493 0.000000 1.000000 0.000000 255 206 133 255
0.342006 -0.256481 -0.000006 -0.000000 1.000000 0.000000 255 206 133 255
0.342006 -0.256481 -0.206504 0.000000 1.000000 0.000000 255 206 133 255
-0.341994 -0.256481 -0.206504 -0.000000 1.000000 0.000000 255 206 133 255
-0.128063 0.202028 0.206493 -1.000000 0.000000 -0.000000 255 206 133 255
-0.128063 0.182305 0.206493 -1.000000 0.000000 -0.000000 255 206 133 255
-0.128063 0.202028 0.206596 -1.000000 0.000000 -0.000000 255 206 133 255
-0.128063 0.182305 0.206596 -1.000000 -0.000000 -0.000000 255 206 133 255
-0.326314 0.202028 0.206596 -0.000000 -1.000000 -0.000000 255 206 133 255
-0.128063 0.202028 0.206493 -0.000000 -1.000000 -0.000000 255 206 133 255
-0.128063 0.202028 0.206596 -0.000000 -1.000000 -0.000000 255 206 133 255
-0.326314 0.182305 0.206596 1.000000 0.000000 0.000000 255 206 133 255
-0.326314 0.202028 0.206493 1.000000 0.000000 0.000000 255 206 133 255
-0.326314 0.202028 0.206596 1.000000 0.000000 0.000000 255 206 133 255
-0.326314 0.202028 0.206493 -0.000000 -1.000000 -0.000000 255 206 133 255
-0.326314 0.182305 0.206493 1.000000 0.000000 -0.000000 255 206 133 255
-0.128063 0.182305 0.206493 -0.000000 1.000000 0.000000 255 206 133 255
-0.326314 0.182305 0.206493 -0.000000 1.000000 0.000000 255 206 133 255
-0.128063 0.182305 0.206596 -0.000000 1.000000 0.000000 255 206 133 255
-0.326314 0.182305 0.206596 0.000000 1.000000 0.000000 255 206 133 255
3 0 1 2
3 1 3 2
3 4 5 6
3 7 4 6
3 8 9 10
3 11 8 10
3 12 13 14
3 15 12 14
3 16 4 7
3 12 17 13
3 18 19 20
3 21 19 18
3 22 23 24
3 25 22 24
3 26 22 25
3 26 27 22
3 28 29 30
3 29 31 30
3 32 33 34
3 35 36 37
3 38 33 32
3 35 39 36
3 40 41 42
3 41 43 42
