ply
format ascii 1.0
comment Created by Blender 2.82 (sub 7) - www.blender.org, source file: ''
element vertex 288
property float x
property float y
property float z
property float nx
property float ny
property float nz
property uchar red
property uchar green
property uchar blue
property uchar alpha
element face 204
property list uchar uint vertex_indices
end_header
1.416183 -0.451023 -0.134859 -0.000000 -0.000000 -1.000000 122 171 255 255
1.416183 1.325768 -0.134859 -0.000000 -0.000000 -1.000000 122 171 255 255
1.511485 -0.451023 -0.134859 -0.000000 -0.000000 -1.000000 122 171 255 255
1.511485 1.325768 -0.134859 -0.000000 -0.000000 -1.000000 122 171 255 255
1.511485 -0.451023 -0.108373 -0.000000 0.000000 1.000000 122 171 255 255
1.511485 1.325768 -0.108373 -0.000000 0.000000 1.000000 122 171 255 255
1.416183 -0.451023 -0.108373 -0.000000 0.000000 1.000000 122 171 255 255
1.416183 1.325768 -0.108373 -0.000000 0.000000 1.000000 142 183 255 255
1.511485 -0.451023 -0.313640 -0.000000 0.000000 1.000000 130 175 255 255
1.511485 1.325768 -0.313640 -0.000000 0.000000 1.000000 122 171 255 255
1.416183 -0.451023 -0.313640 -0.000000 0.000000 1.000000 122 171 255 255
1.416183 1.325768 -0.313640 -0.000000 0.000000 1.000000 122 171 255 255
1.416183 -0.451023 -0.340126 -0.000000 -0.000000 -1.000000 122 171 255 255
1.416183 1.325768 -0.340126 -0.000000 -0.000000 -1.000000 123 172 255 255
1.511485 -0.451023 -0.340126 -0.000000 -0.000000 -1.000000 122 171 255 255
1.511485 1.325768 -0.340126 -0.000000 -0.000000 -1.000000 122 171 255 255
1.416183 -0.451023 -0.340126 0.000000 1.000000 -0.000000 122 171 255 255
1.511485 -0.451023 -0.340126 0.000000 1.000000 -0.000000 122 171 255 255
1.416183 -0.451023 -0.379855 0.000000 1.000000 -0.000000 122 171 255 255
1.511485 -0.451023 -0.379855 0.000000 1.000000 -0.000000 122 171 255 255
1.416183 -0.451023 -0.134859 0.000000 1.000000 -0.000000 122 171 255 255
1.511485 -0.451023 -0.134859 0.000000 1.000000 -0.000000 122 171 255 255
1.416183 -0.451023 -0.313640 0.000000 1.000000 -0.000000 122 171 255 255
1.511485 -0.451023 -0.313640 0.000000 1.000000 -0.000000 130 175 255 255
1.511485 -0.451023 -0.108373 -0.000000 1.000000 0.000000 122 171 255 255
1.416183 -0.451023 -0.108373 -0.000000 1.000000 0.000000 122 171 255 255
1.511485 -0.451023 -0.023121 -0.000000 1.000000 0.000000 122 171 255 255
1.416183 -0.451023 -0.023121 -0.000000 1.000000 0.000000 123 172 255 255
1.511485 1.325768 -0.340126 0.000000 -1.000000 0.000000 122 171 255 255
1.416183 1.325768 -0.340126 0.000000 -1.000000 0.000000 123 172 255 255
1.511485 1.325768 -0.379855 0.000000 -1.000000 0.000000 122 171 255 255
1.416183 1.325768 -0.379855 0.000000 -1.000000 0.000000 122 171 255 255
1.416183 1.325768 -0.108373 -0.000000 -1.000000 -0.000000 142 183 255 255
1.511485 1.325768 -0.108373 -0.000000 -1.000000 -0.000000 122 171 255 255
1.416183 1.325768 -0.023121 -0.000000 -1.000000 -0.000000 131 175 255 255
1.511485 1.325768 -0.023121 -0.000000 -1.000000 -0.000000 122 171 255 255
1.511485 1.325768 -0.134859 0.000000 -1.000000 0.000000 122 171 255 255
1.416183 1.325768 -0.134859 0.000000 -1.000000 0.000000 122 171 255 255
1.511485 1.325768 -0.313640 0.000000 -1.000000 0.000000 122 171 255 255
1.416183 1.325768 -0.313640 0.000000 -1.000000 0.000000 122 171 255 255
-1.433658 -0.451023 -0.134859 -0.000000 -0.000000 -1.000000 122 171 255 255
-1.433658 1.325768 -0.134859 -0.000000 -0.000000 -1.000000 145 184 255 255
-1.338355 -0.451023 -0.134859 -0.000000 -0.000000 -1.000000 122 171 255 255
-1.338355 1.325768 -0.134859 -0.000000 -0.000000 -1.000000 122 171 255 255
-1.338355 -0.451023 -0.108373 -0.000000 0.000000 1.000000 122 171 255 255
-1.338355 1.325768 -0.108373 -0.000000 0.000000 1.000000 122 171 255 255
-1.433658 -0.451023 -0.108373 -0.000000 0.000000 1.000000 122 171 255 255
-1.433658 1.325768 -0.108373 -0.000000 0.000000 1.000000 128 174 255 255
-1.338355 -0.451023 -0.313640 -0.000000 0.000000 1.000000 122 171 255 255
-1.338355 1.325768 -0.313640 -0.000000 0.000000 1.000000 122 171 255 255
-1.433658 -0.451023 -0.313640 -0.000000 0.000000 1.000000 122 171 255 255
-1.433658 1.325768 -0.313640 -0.000000 0.000000 1.000000 122 171 255 255
-1.433658 -0.451023 -0.340126 -0.000000 -0.000000 -1.000000 122 171 255 255
-1.433658 1.325768 -0.340126 -0.000000 -0.000000 -1.000000 122 171 255 255
-1.338355 -0.451023 -0.340126 -0.000000 -0.000000 -1.000000 122 171 255 255
-1.338355 1.325768 -0.340126 -0.000000 -0.000000 -1.000000 122 171 255 255
-1.433658 -0.451023 -0.340126 0.000000 1.000000 -0.000000 122 171 255 255
-1.338355 -0.451023 -0.340126 0.000000 1.000000 -0.000000 122 171 255 255
-1.433658 -0.451023 -0.379855 0.000000 1.000000 -0.000000 126 174 255 255
-1.338355 -0.451023 -0.379855 0.000000 1.000000 -0.000000 122 171 255 255
-1.433658 -0.451023 -0.134859 0.000000 1.000000 -0.000000 122 171 255 255
-1.338355 -0.451023 -0.134859 0.000000 1.000000 -0.000000 122 171 255 255
-1.433658 -0.451023 -0.313640 0.000000 1.000000 -0.000000 122 171 255 255
-1.338355 -0.451023 -0.313640 0.000000 1.000000 -0.000000 122 171 255 255
-1.433658 1.325768 -0.108373 -0.000000 -1.000000 -0.000000 128 174 255 255
-1.338355 1.325768 -0.108373 -0.000000 -1.000000 -0.000000 122 171 255 255
-1.433658 1.325768 -0.023121 -0.000000 -1.000000 -0.000000 122 171 255 255
-1.338355 1.325768 -0.023121 -0.000000 -1.000000 -0.000000 122 171 255 255
-1.338355 1.325768 -0.340126 0.000000 -1.000000 0.000000 122 171 255 255
-1.433658 1.325768 -0.340126 0.000000 -1.000000 0.000000 122 171 255 255
-1.338355 1.325768 -0.379855 0.000000 -1.000000 0.000000 122 171 255 255
-1.433658 1.325768 -0.379855 0.000000 -1.000000 0.000000 124 172 255 255
-1.338355 -0.451023 -0.023121 1.000000 0.000000 -0.000000 122 171 255 255
-1.338355 -0.612549 -0.023121 1.000000 0.000000 -0.000000 122 171 255 255
-1.338355 -0.451023 -0.108373 1.000000 0.000000 -0.000000 122 171 255 255
-1.338355 -0.451023 -0.134859 1.000000 -0.000000 -0.000000 122 171 255 255
-1.338355 1.325768 -0.134859 1.000000 -0.000000 0.000000 122 171 255 255
-1.338355 1.325768 -0.108373 1.000000 -0.000000 0.000000 122 171 255 255
-1.338355 1.487294 -0.023121 1.000000 -0.000000 0.000000 122 171 255 255
-1.338355 1.487294 -0.379855 1.000000 0.000000 0.000000 122 171 255 255
-1.338355 1.325768 -0.313640 1.000000 0.000000 -0.000000 122 171 255 255
-1.338355 1.325768 -0.340126 1.000000 -0.000000 0.000000 122 171 255 255
-1.338355 1.325768 -0.379855 1.000000 0.000000 0.000000 122 171 255 255
-1.338355 -0.612549 -0.379855 1.000000 0.000000 -0.000000 122 171 255 255
-1.338355 -0.451023 -0.313640 1.000000 0.000000 -0.000000 122 171 255 255
-1.338355 -0.451023 -0.340126 1.000000 0.000000 -0.000000 122 171 255 255
-1.338355 -0.451023 -0.379855 1.000000 0.000000 0.000000 122 171 255 255
-1.338355 1.325768 -0.023121 1.000000 0.000000 0.000000 122 171 255 255
-1.433658 -0.612549 -0.379855 -0.000000 -1.000000 -0.000000 165 195 255 255
-1.338355 -0.612549 -0.379855 -0.000000 -1.000000 -0.000000 122 171 255 255
-1.433658 -0.612549 -0.023121 -0.000000 -1.000000 -0.000000 122 171 255 255
-1.338355 -0.612549 -0.023121 -0.000000 -1.000000 -0.000000 122 171 255 255
-1.338355 -0.451023 -0.108373 -0.000000 1.000000 0.000000 122 171 255 255
-1.433658 -0.451023 -0.108373 -0.000000 1.000000 0.000000 122 171 255 255
-1.338355 -0.451023 -0.023121 -0.000000 1.000000 0.000000 122 171 255 255
-1.433658 -0.451023 -0.023121 -0.000000 1.000000 0.000000 122 171 255 255
-1.338355 -0.451023 -0.379855 0.000000 0.000000 -1.000000 122 171 255 255
-1.338355 -0.612549 -0.379855 0.000000 0.000000 -1.000000 122 171 255 255
-1.433658 -0.451023 -0.379855 0.000000 0.000000 -1.000000 126 174 255 255
-1.433658 -0.612549 -0.379855 0.000000 0.000000 -1.000000 165 195 255 255
1.416183 1.325768 -0.108373 -1.000000 0.000000 0.000000 142 183 255 255
1.416183 -0.451023 -0.134859 -1.000000 0.000000 0.000000 122 171 255 255
1.416183 -0.451023 -0.108373 -1.000000 0.000000 0.000000 122 171 255 255
1.416183 1.325768 -0.134859 -1.000000 0.000000 0.000000 122 171 255 255
1.416183 1.487294 -0.023121 -1.000000 -0.000000 0.000000 122 171 255 255
1.416183 1.325768 -0.023121 -1.000000 -0.000000 -0.000000 131 175 255 255
1.416183 1.487294 -0.379855 -1.000000 0.000000 0.000000 122 171 255 255
1.416183 1.325768 -0.313640 -1.000000 0.000000 0.000000 122 171 255 255
1.416183 1.325768 -0.340126 -1.000000 0.000000 0.000000 123 172 255 255
1.416183 -0.451023 -0.340126 -1.000000 -0.000000 0.000000 122 171 255 255
1.416183 -0.451023 -0.313640 -1.000000 -0.000000 -0.000000 122 171 255 255
1.416183 -0.612549 -0.379855 -1.000000 0.000000 -0.000000 122 171 255 255
1.416183 -0.451023 -0.379855 -1.000000 0.000000 0.000000 122 171 255 255
1.416183 1.325768 -0.379855 -1.000000 0.000000 0.000000 122 171 255 255
1.416183 -0.612549 -0.023121 -1.000000 0.000000 0.000000 122 171 255 255
1.416183 -0.451023 -0.023121 -1.000000 -0.000000 -0.000000 123 172 255 255
1.416183 -0.612549 -0.379855 -0.000000 -1.000000 -0.000000 122 171 255 255
1.511485 -0.612549 -0.379855 -0.000000 -1.000000 -0.000000 128 174 255 255
1.416183 -0.612549 -0.023121 -0.000000 -1.000000 -0.000000 122 171 255 255
1.511485 -0.612549 -0.023121 -0.000000 -1.000000 -0.000000 122 171 255 255
1.416183 -0.612549 -0.379855 -0.000000 -0.000000 -1.000000 122 171 255 255
1.416183 -0.451023 -0.379855 -0.000000 -0.000000 -1.000000 122 171 255 255
1.511485 -0.612549 -0.379855 -0.000000 -0.000000 -1.000000 128 174 255 255
1.511485 -0.451023 -0.379855 -0.000000 -0.000000 -1.000000 122 171 255 255
-1.338355 -0.451023 -0.023121 0.000000 0.000000 -1.000000 122 171 255 255
1.416183 -0.451023 -0.023121 0.000000 0.000000 -1.000000 123 172 255 255
-1.338355 -0.612549 -0.023121 0.000000 0.000000 -1.000000 122 171 255 255
1.416183 -0.612549 -0.023121 -0.000000 0.000000 -1.000000 122 171 255 255
1.416183 1.325768 -0.023121 -0.000000 -0.000000 -1.000000 131 175 255 255
1.511485 -0.451023 -0.023121 -0.000000 -0.000000 -1.000000 122 171 255 255
1.511485 1.325768 -0.023121 -0.000000 -0.000000 -1.000000 122 171 255 255
1.511485 -0.612549 -0.023121 0.000000 0.000000 -1.000000 122 171 255 255
1.511485 -0.769026 -0.023121 0.000000 0.000000 -1.000000 122 171 255 255
1.416183 -0.769026 -0.023121 0.000000 0.000000 -1.000000 122 171 255 255
-1.338355 -0.769026 -0.023121 0.000000 0.000000 -1.000000 136 178 255 255
-1.433658 -0.612549 -0.023121 0.000000 0.000000 -1.000000 122 171 255 255
-1.433658 -0.769026 -0.023121 0.000000 0.000000 -1.000000 122 171 255 255
-1.338355 1.487294 -0.379855 -0.000000 1.000000 0.000000 122 171 255 255
-1.433658 1.487294 -0.379855 -0.000000 1.000000 0.000000 125 173 255 255
-1.338355 1.487294 -0.023121 -0.000000 1.000000 0.000000 122 171 255 255
-1.433658 1.487294 -0.023121 -0.000000 1.000000 0.000000 122 171 255 255
-1.338355 1.325768 -0.134859 0.000000 -1.000000 0.000000 122 171 255 255
-1.433658 1.325768 -0.134859 0.000000 -1.000000 0.000000 145 184 255 255
-1.338355 1.325768 -0.313640 0.000000 -1.000000 0.000000 122 171 255 255
-1.433658 1.325768 -0.313640 0.000000 -1.000000 0.000000 122 171 255 255
-1.338355 1.487294 -0.379855 0.000000 0.000000 -1.000000 122 171 255 255
-1.338355 1.325768 -0.379855 0.000000 0.000000 -1.000000 122 171 255 255
-1.433658 1.487294 -0.379855 0.000000 0.000000 -1.000000 125 173 255 255
-1.433658 1.325768 -0.379855 0.000000 0.000000 -1.000000 124 172 255 255
1.511485 1.487294 -0.379855 -0.000000 1.000000 0.000000 122 171 255 255
1.416183 1.487294 -0.379855 -0.000000 1.000000 0.000000 122 171 255 255
1.511485 1.487294 -0.023121 -0.000000 1.000000 0.000000 122 171 255 255
1.416183 1.487294 -0.023121 -0.000000 1.000000 0.000000 122 171 255 255
1.416183 1.325768 -0.379855 -0.000000 -0.000000 -1.000000 122 171 255 255
1.416183 1.487294 -0.379855 -0.000000 -0.000000 -1.000000 122 171 255 255
1.511485 1.325768 -0.379855 -0.000000 -0.000000 -1.000000 122 171 255 255
1.511485 1.487294 -0.379855 -0.000000 -0.000000 -1.000000 122 171 255 255
1.416183 1.487294 -0.023121 -0.000000 -0.000000 -1.000000 122 171 255 255
1.416183 1.643771 -0.023121 -0.000000 -0.000000 -1.000000 122 171 255 255
1.511485 1.487294 -0.023121 -0.000000 -0.000000 -1.000000 122 171 255 255
1.511485 1.643771 -0.023121 -0.000000 -0.000000 -1.000000 122 171 255 255
-1.338355 1.487294 -0.023121 0.000000 0.000000 -1.000000 122 171 255 255
-1.338355 1.325768 -0.023121 0.000000 0.000000 -1.000000 122 171 255 255
-1.433658 -0.451023 -0.023121 -0.000000 -0.000000 -1.000000 122 171 255 255
-1.433658 1.325768 -0.023121 -0.000000 -0.000000 -1.000000 122 171 255 255
-1.433658 -0.451023 -0.379855 -1.000000 0.000000 -0.000000 126 174 255 255
-1.433658 -0.612549 -0.379855 -1.000000 0.000000 -0.000000 165 195 255 255
-1.433658 -0.451023 -0.340126 -1.000000 0.000000 -0.000000 122 171 255 255
-1.433658 -0.451023 -0.313640 -1.000000 0.000000 -0.000000 122 171 255 255
-1.433658 1.325768 -0.313640 -1.000000 0.000000 0.000000 122 171 255 255
-1.433658 1.325768 -0.340126 -1.000000 0.000000 0.000000 122 171 255 255
-1.433658 1.487294 -0.379855 -1.000000 0.000000 0.000000 125 173 255 255
-1.433658 1.325768 -0.134859 -1.000000 -0.000000 -0.000000 145 184 255 255
-1.433658 1.487294 -0.023121 -1.000000 0.000000 -0.000000 122 171 255 255
-1.433658 1.325768 -0.108373 -1.000000 0.000000 0.000000 128 174 255 255
-1.433658 1.325768 -0.023121 -1.000000 0.000000 0.000000 122 171 255 255
-1.433658 1.643771 0.003365 -1.000000 -0.000000 0.000000 122 171 255 255
-1.433658 -0.451023 -0.023121 -1.000000 0.000000 -0.000000 122 171 255 255
-1.433658 -0.769026 0.003365 -1.000000 0.000000 0.000000 122 171 255 255
-1.433658 -0.612549 -0.023121 -1.000000 0.000000 0.000000 122 171 255 255
-1.433658 -0.769026 -0.023121 -1.000000 -0.000000 -0.000000 122 171 255 255
-1.433658 -0.451023 -0.134859 -1.000000 0.000000 -0.000000 122 171 255 255
-1.433658 -0.451023 -0.108373 -1.000000 -0.000000 -0.000000 122 171 255 255
-1.433658 1.643771 -0.023121 -1.000000 0.000000 0.000000 122 171 255 255
-1.433658 1.325768 -0.379855 -1.000000 0.000000 0.000000 124 172 255 255
-1.433658 -0.769026 -0.023121 -0.000000 -1.000000 -0.000000 122 171 255 255
-1.338355 -0.769026 -0.023121 -0.000000 -1.000000 -0.000000 136 178 255 255
-1.433658 -0.769026 0.003365 -0.000000 -1.000000 -0.000000 122 171 255 255
-1.338355 -0.769026 0.003365 -0.000000 -1.000000 -0.000000 123 172 255 255
-1.433658 1.487294 -0.023121 -0.000000 -0.000000 -1.000000 122 171 255 255
-1.433658 1.643771 -0.023121 -0.000000 -0.000000 -1.000000 122 171 255 255
-1.338355 1.643771 -0.023121 -0.000000 -0.000000 -1.000000 122 171 255 255
1.511485 1.325768 -0.340126 1.000000 -0.000000 0.000000 122 171 255 255
1.511485 -0.451023 -0.313640 1.000000 -0.000000 0.000000 130 175 255 255
1.511485 -0.451023 -0.340126 1.000000 -0.000000 0.000000 122 171 255 255
1.511485 1.325768 -0.313640 1.000000 -0.000000 0.000000 122 171 255 255
1.511485 1.487294 -0.379855 1.000000 0.000000 0.000000 122 171 255 255
1.511485 1.325768 -0.379855 1.000000 0.000000 -0.000000 122 171 255 255
1.511485 1.325768 -0.134859 1.000000 0.000000 0.000000 122 171 255 255
1.511485 1.487294 -0.023121 1.000000 0.000000 0.000000 122 171 255 255
1.511485 1.325768 -0.108373 1.000000 -0.000000 0.000000 122 171 255 255
1.511485 1.325768 -0.023121 1.000000 -0.000000 0.000000 122 171 255 255
1.511485 -0.451023 -0.108373 1.000000 0.000000 -0.000000 122 171 255 255
1.511485 -0.451023 -0.134859 1.000000 -0.000000 0.000000 122 171 255 255
1.511485 -0.612549 -0.023121 1.000000 0.000000 0.000000 122 171 255 255
1.511485 -0.612549 -0.379855 1.000000 0.000000 0.000000 128 174 255 255
1.511485 -0.451023 -0.379855 1.000000 0.000000 0.000000 122 171 255 255
1.511485 1.643771 -0.023121 1.000000 -0.000000 0.000000 122 171 255 255
1.511485 1.643771 0.003365 1.000000 -0.000000 0.000000 122 171 255 255
1.511485 -0.769026 0.003365 1.000000 -0.000000 0.000000 122 171 255 255
1.511485 -0.451023 -0.023121 1.000000 -0.000000 -0.000000 122 171 255 255
1.511485 -0.769026 -0.023121 1.000000 0.000000 -0.000000 122 171 255 255
1.514560 -0.774076 0.003365 1.000000 0.000000 0.000000 122 171 255 255
1.514560 1.648820 0.003365 1.000000 0.000000 0.000000 122 171 255 255
1.514560 -0.774076 0.017437 1.000000 0.000000 0.000000 122 171 255 255
1.514560 1.648820 0.017437 1.000000 0.000000 0.000000 127 174 255 255
1.511485 1.643771 -0.023121 -0.000000 1.000000 0.000000 122 171 255 255
1.416183 1.643771 -0.023121 -0.000000 1.000000 0.000000 122 171 255 255
1.511485 1.643771 0.003365 -0.000000 1.000000 0.000000 122 171 255 255
1.416183 1.643771 0.003365 -0.000000 1.000000 0.000000 123 172 255 255
-1.433658 1.643771 0.003365 0.000000 1.000000 -0.000000 122 171 255 255
-1.338355 1.643771 0.003365 0.000000 1.000000 -0.000000 122 171 255 255
-1.433658 1.643771 -0.023121 0.000000 1.000000 -0.000000 122 171 255 255
-1.338355 1.643771 -0.023121 0.000000 1.000000 -0.000000 122 171 255 255
1.514560 1.648820 0.003365 -0.000000 1.000000 0.000000 122 171 255 255
-1.436731 1.648820 0.003365 -0.000000 1.000000 0.000000 122 171 255 255
1.514560 1.648820 0.017437 -0.000000 1.000000 0.000000 127 174 255 255
-1.436731 1.648820 0.017437 -0.000000 1.000000 0.000000 122 171 255 255
-1.436731 1.648820 0.003365 -1.000000 0.000000 -0.000000 122 171 255 255
-1.436731 -0.774076 0.003365 -1.000000 0.000000 -0.000000 122 171 255 255
-1.436731 1.648820 0.017437 -1.000000 0.000000 -0.000000 122 171 255 255
-1.436731 -0.774076 0.017437 -1.000000 0.000000 0.000000 122 171 255 255
1.511485 -0.769026 0.003365 0.000000 -1.000000 0.000000 122 171 255 255
1.416183 -0.769026 0.003365 0.000000 -1.000000 0.000000 122 171 255 255
1.511485 -0.769026 -0.023121 0.000000 -1.000000 0.000000 122 171 255 255
1.416183 -0.769026 -0.023121 0.000000 -1.000000 0.000000 122 171 255 255
1.416183 -0.769026 0.003365 -1.000000 0.000000 0.000000 122 171 255 255
1.416183 -0.612549 0.003365 -1.000000 0.000000 0.000000 122 171 255 255
1.416183 -0.769026 -0.023121 -1.000000 0.000000 0.000000 122 171 255 255
-1.338355 -0.769026 -0.023121 1.000000 0.000000 0.000000 136 178 255 255
-1.338355 -0.769026 0.003365 1.000000 0.000000 0.000000 123 172 255 255
-1.338355 -0.612549 0.003365 1.000000 0.000000 0.000000 122 171 255 255
1.416183 1.643771 -0.023121 -1.000000 0.000000 -0.000000 122 171 255 255
1.416183 1.643771 0.003365 -1.000000 0.000000 -0.000000 123 172 255 255
1.416183 1.487294 0.003365 -1.000000 0.000000 0.000000 122 171 255 255
1.416183 -0.451023 0.003365 -1.000000 0.000000 0.000000 122 171 255 255
1.416183 1.325768 0.003365 -1.000000 0.000000 0.000000 122 171 255 255
-1.338355 1.643771 0.003365 1.000000 0.000000 -0.000000 122 171 255 255
-1.338355 1.487294 0.003365 1.000000 0.000000 -0.000000 122 171 255 255
-1.338355 1.643771 -0.023121 1.000000 0.000000 -0.000000 122 171 255 255
-1.338355 1.325768 0.003365 1.000000 0.000000 -0.000000 136 167 247 255
-1.338355 -0.451023 0.003365 1.000000 0.000000 -0.000000 122 171 255 255
-1.338355 -0.612549 0.003365 -0.000000 -1.000000 -0.000000 122 171 255 255
1.416183 -0.612549 0.003365 -0.000000 -1.000000 -0.000000 122 171 255 255
1.416183 -0.451023 0.003365 -0.000000 1.000000 0.000000 122 171 255 255
-1.338355 -0.451023 0.003365 -0.000000 1.000000 0.000000 122 171 255 255
-1.338355 1.325768 0.003365 -0.000000 -1.000000 -0.000000 136 167 247 255
1.416183 1.325768 0.003365 -0.000000 -1.000000 -0.000000 122 171 255 255
1.416183 1.487294 0.003365 -0.000000 1.000000 0.000000 122 171 255 255
-1.338355 1.487294 0.003365 -0.000000 1.000000 0.000000 122 171 255 255
-1.338355 -0.451023 0.003365 -0.000000 -0.000000 -1.000000 122 171 255 255
-1.338355 1.325768 0.003365 -0.000000 -0.000000 -1.000000 136 167 247 255
1.416183 -0.451023 0.003365 -0.000000 -0.000000 -1.000000 122 171 255 255
1.416183 1.325768 0.003365 -0.000000 -0.000000 -1.000000 122 171 255 255
-1.436731 -0.774076 0.003365 -0.000000 -1.000000 -0.000000 122 171 255 255
1.514560 -0.774076 0.003365 -0.000000 -1.000000 -0.000000 122 171 255 255
-1.436731 -0.774076 0.017437 -0.000000 -1.000000 -0.000000 122 171 255 255
1.514560 -0.774076 0.017437 -0.000000 -1.000000 -0.000000 122 171 255 255
1.514560 -0.774076 0.017437 -0.000000 0.000000 1.000000 122 171 255 255
1.514560 1.648820 0.017437 -0.000000 0.000000 1.000000 127 174 255 255
-1.436731 -0.774076 0.017437 -0.000000 0.000000 1.000000 122 171 255 255
-1.436731 1.648820 0.017437 -0.000000 0.000000 1.000000 122 171 255 255
-1.436731 1.648820 0.003365 0.000000 0.000000 -1.000000 122 171 255 255
-1.433658 -0.769026 0.003365 0.000000 0.000000 -1.000000 122 171 255 255
-1.436731 -0.774076 0.003365 0.000000 0.000000 -1.000000 122 171 255 255
-1.433658 1.643771 0.003365 0.000000 0.000000 -1.000000 122 171 255 255
-1.338355 1.643771 0.003365 0.000000 0.000000 -1.000000 122 171 255 255
1.416183 1.643771 0.003365 0.000000 0.000000 -1.000000 123 172 255 255
1.514560 1.648820 0.003365 0.000000 0.000000 -1.000000 122 171 255 255
1.511485 1.643771 0.003365 -0.000000 0.000000 -1.000000 122 171 255 255
1.514560 -0.774076 0.003365 -0.000000 0.000000 -1.000000 122 171 255 255
1.511485 -0.769026 0.003365 0.000000 0.000000 -1.000000 122 171 255 255
1.416183 -0.769026 0.003365 0.000000 0.000000 -1.000000 122 171 255 255
-1.338355 -0.769026 0.003365 0.000000 -0.000000 -1.000000 123 172 255 255
-1.338355 -0.612549 0.003365 0.000000 0.000000 -1.000000 122 171 255 255
1.416183 -0.612549 0.003365 0.000000 0.000000 -1.000000 122 171 255 255
1.416183 1.487294 0.003365 0.000000 0.000000 -1.000000 122 171 255 255
-1.338355 1.487294 0.003365 0.000000 0.000000 -1.000000 122 171 255 255
3 0 1 2
3 2 1 3
3 4 5 6
3 6 5 7
3 8 9 10
3 10 9 11
3 12 13 14
3 14 13 15
3 16 17 18
3 18 17 19
3 20 21 22
3 22 21 23
3 24 25 26
3 26 25 27
3 28 29 30
3 30 29 31
3 32 33 34
3 34 33 35
3 36 37 38
3 38 37 39
3 40 41 42
3 42 41 43
3 44 45 46
3 46 45 47
3 48 49 50
3 50 49 51
3 52 53 54
3 54 53 55
3 56 57 58
3 58 57 59
3 60 61 62
3 62 61 63
3 64 65 66
3 66 65 67
3 68 69 70
3 70 69 71
3 72 73 74
3 74 73 75
3 76 74 75
3 76 77 74
3 76 78 77
3 76 79 78
3 76 80 79
3 79 80 81
3 82 79 81
3 73 83 75
3 75 83 84
3 84 83 85
3 81 84 85
3 81 80 84
3 83 86 85
3 78 87 77
3 88 89 90
3 90 89 91
3 92 93 94
3 94 93 95
3 96 97 98
3 98 97 99
3 100 101 102
3 100 103 101
3 100 104 103
3 100 105 104
3 104 106 103
3 103 106 107
3 107 106 108
3 109 107 108
3 109 110 107
3 109 111 110
3 109 112 111
3 106 113 108
3 110 111 101
3 101 111 114
3 102 114 115
3 102 101 114
3 116 117 118
3 118 117 119
3 120 121 122
3 122 121 123
3 124 125 126
3 126 125 127
3 125 128 129
3 129 128 130
3 131 132 127
3 127 132 133
3 126 134 135
3 135 134 136
3 137 138 139
3 139 138 140
3 141 142 143
3 143 142 144
3 145 146 147
3 147 146 148
3 149 150 151
3 151 150 152
3 153 154 155
3 155 154 156
3 157 158 159
3 159 158 160
3 161 157 162
3 162 157 128
3 163 164 124
3 124 164 162
3 165 166 167
3 167 166 168
3 169 167 168
3 169 170 167
3 169 171 170
3 169 172 171
3 171 172 173
3 173 172 174
3 175 173 174
3 175 176 173
3 175 177 176
3 176 177 178
3 178 177 179
3 180 178 179
3 168 166 181
3 181 166 179
3 182 179 177
3 182 181 179
3 182 174 181
3 181 174 172
3 176 183 173
3 171 184 170
3 185 186 187
3 187 186 188
3 189 190 161
3 161 190 191
3 192 193 194
3 192 195 193
3 192 196 195
3 192 197 196
3 195 196 198
3 198 196 199
3 200 199 201
3 200 198 199
3 200 202 198
3 198 202 203
3 203 202 204
3 205 203 204
3 205 193 203
3 205 194 193
3 205 206 194
3 207 208 199
3 199 208 201
3 201 208 209
3 210 209 204
3 202 210 204
3 209 211 204
3 210 201 209
3 212 213 214
3 214 213 215
3 216 217 218
3 218 217 219
3 220 221 222
3 222 221 223
3 224 225 226
3 226 225 227
3 228 229 230
3 230 229 231
3 232 233 234
3 234 233 235
3 236 237 238
3 238 237 114
3 239 73 240
3 240 73 241
3 242 104 243
3 243 104 244
3 245 246 115
3 115 246 105
3 247 248 249
3 249 248 78
3 250 251 87
3 87 251 72
3 91 118 252
3 252 118 253
3 27 94 254
3 254 94 255
3 67 34 256
3 256 34 257
3 152 139 258
3 258 139 259
3 260 261 262
3 262 261 263
3 264 265 266
3 266 265 267
3 268 269 270
3 270 269 271
3 272 273 274
3 272 275 273
3 272 276 275
3 272 277 276
3 272 278 277
3 277 278 279
3 279 278 280
3 281 280 282
3 281 279 280
3 280 274 282
3 282 274 283
3 284 282 283
3 284 285 282
3 273 283 274
3 277 286 276
3 276 286 287
